<svg width="240" height="60" viewBox="0 0 240 60" xmlns="http://www.w3.org/2000/svg">
  <defs>
    <linearGradient id="conceptAGradient" x1="0%" y1="0%" x2="100%" y2="100%">
      <stop offset="0%" style="stop-color:#001f4d;stop-opacity:1" />
      <stop offset="100%" style="stop-color:#0a3f7f;stop-opacity:1" />
    </linearGradient>
  </defs>
  
  <!-- CONCEPT A: Modern Geometric DG Monogram -->
  <!-- "D" - Angular geometric form -->
  <path d="M 4 8 L 18 8 Q 24 8 24 20 L 24 40 Q 24 52 18 52 L 4 52 L 4 8 Z" 
        fill="url(#conceptAGradient)" stroke="none"/>
  <path d="M 10 15 L 14 15 L 14 45 L 10 45 Z" 
        fill="white" opacity="0.12"/>
  
  <!-- "G" - Angular geometric form -->
  <path d="M 28 8 L 42 8 L 42 30 L 38 30 L 38 12 L 32 12 L 32 48 L 38 48 L 38 34 L 42 34 L 42 52 L 28 52 Q 26 52 26 50 L 26 10 Q 26 8 28 8 Z" 
        fill="url(#conceptAGradient)" stroke="none"/>
  
  <!-- Central Gold Accent - Sharp geometric element -->
  <path d="M 22 20 L 28 20 L 28 40 L 22 40 Z" 
        fill="#FFD700" opacity="0.9"/>
  
  <!-- Vertical text: DHRITI GLOBAL -->
  <text x="58" y="32" font-family="'Segoe UI', 'Arial', sans-serif" font-size="20" font-weight="700" fill="#001f4d" letter-spacing="-0.5">
    DHRITI
  </text>
  <text x="58" y="48" font-family="'Segoe UI', 'Arial', sans-serif" font-size="12" font-weight="600" fill="#FFD700">
    GLOBAL
  </text>
</svg>