<svg width="300" height="80" viewBox="0 0 300 80" xmlns="http://www.w3.org/2000/svg">
  <defs>
    <linearGradient id="v2grad4" x1="0%" y1="0%" x2="100%" y2="100%">
      <stop offset="0%" style="stop-color:#001f4d;stop-opacity:1" />
      <stop offset="100%" style="stop-color:#0a3f7f;stop-opacity:1" />
    </linearGradient>
  </defs>
  
  <!-- CONCEPT 7: Stylized "DG" with Infrastructure Elements -->
  <!-- Represents: Company initials integrated with their core business -->
  
  <!-- "D" shape (Navy) -->
  <path d="M 6 8 L 14 8 Q 18 8 18 20 L 18 38 Q 18 44 14 44 L 6 44 Z" fill="url(#v2grad4)"/>
  <path d="M 11 13 L 13 13 Q 16 13 16 20 L 16 38 Q 16 41 13 41 L 11 41 Z" fill="white" opacity="0.1"/>
  
  <!-- "G" shape (Navy) -->
  <path d="M 20 8 L 28 8 Q 32 8 32 20 L 32 44 L 27 44 L 27 25 L 25 25 Q 21 25 21 20 Q 21 14 25 14 L 28 14" 
        fill="url(#v2grad4)"/>
  
  <!-- Gold infrastructure lines running through "DG" -->
  <line x1="10" y1="15" x2="10" y2="35" stroke="#FFD700" stroke-width="1.5" opacity="0.7"/>
  <line x1="26" y1="12" x2="26" y2="42" stroke="#FFD700" stroke-width="1.5" opacity="0.7"/>
  <line x1="8" y1="26" x2="32" y2="26" stroke="#FFD700" stroke-width="1.5" opacity="0.7"/>
  
  <!-- Connection nodes (Gold dots) -->
  <circle cx="10" cy="15" r="1.5" fill="#FFD700"/>
  <circle cx="10" cy="26" r="1.5" fill="#FFD700"/>
  <circle cx="10" cy="35" r="1.5" fill="#FFD700"/>
  <circle cx="26" cy="12" r="1.5" fill="#FFD700"/>
  <circle cx="26" cy="26" r="1.5" fill="#FFD700"/>
  <circle cx="26" cy="40" r="1.5" fill="#FFD700"/>
  
  <!-- Company Name: DG techinfra -->
  <text x="68" y="35" font-family="'Segoe UI', Arial, sans-serif" font-size="22" font-weight="700" fill="#001f4d">
    DG
  </text>
  <text x="100" y="35" font-family="'Segoe UI', Arial, sans-serif" font-size="22" font-weight="600" fill="#001f4d">
    techinfra
  </text>
  
  <!-- Tagline -->
  <text x="68" y="55" font-family="'Segoe UI', Arial, sans-serif" font-size="11" font-weight="600" fill="#FFD700" letter-spacing="0.5">
    Core Infrastructure
  </text>
</svg>