<svg viewBox="0 0 200 240" xmlns="http://www.w3.org/2000/svg">
  <!-- Background circle -->
  <circle cx="100" cy="100" r="90" fill="#f5f5f5" stroke="#0d3b66" stroke-width="2"/>
  
  <!-- Bridge Tower Left -->
  <rect x="50" y="45" width="8" height="70" fill="#0d3b66"/>
  <rect x="45" y="35" width="18" height="15" fill="#0d3b66" rx="2"/>
  
  <!-- Bridge Tower Right -->
  <rect x="142" y="45" width="8" height="70" fill="#0d3b66"/>
  <rect x="137" y="35" width="18" height="15" fill="#0d3b66" rx="2"/>
  
  <!-- Main Bridge Arch Left -->
  <path d="M 54 115 Q 75 50 96 115" fill="none" stroke="#0d3b66" stroke-width="3" stroke-linecap="round"/>
  
  <!-- Main Bridge Arch Right -->
  <path d="M 104 115 Q 125 50 146 115" fill="none" stroke="#ea8c2e" stroke-width="3" stroke-linecap="round"/>
  
  <!-- Bridge Deck -->
  <rect x="50" y="113" width="100" height="8" fill="#0d3b66" opacity="0.8"/>
  
  <!-- Bridge Cables Left -->
  <line x1="75" y1="55" x2="70" y2="120" stroke="#0d3b66" stroke-width="1.5" opacity="0.6"/>
  <line x1="85" y1="55" x2="80" y2="120" stroke="#0d3b66" stroke-width="1.5" opacity="0.6"/>
  
  <!-- Bridge Cables Right -->
  <line x1="115" y1="55" x2="120" y2="120" stroke="#ea8c2e" stroke-width="1.5" opacity="0.6"/>
  <line x1="125" y1="55" x2="130" y2="120" stroke="#ea8c2e" stroke-width="1.5" opacity="0.6"/>
  
  <!-- Water/Base -->
  <path d="M 40 150 Q 70 160 100 155 Q 130 160 160 150 L 160 170 Q 100 185 40 170 Z" fill="#0d3b66" opacity="0.1"/>
</svg>